@startuml
title 基于GitHub的实验管理平台--类图
class users {
    <b>user_id</b> （用户ID）
    name （用户真实姓名）
    github_username （用户GitHub账号）
    update_date （用户GitHub账号修改日期）
    password （用户密码）
    disable （用户是否禁用）
}
class teachers{
    <b>teacher_id</b> （老师工号）
    teacher_name（老师姓名）
    department （老师所属部门）
}
class students{
    <b>student_id</b> （学号）
    class （班级）
    web_sum （网站正确与否汇总）
    term（学期）
    major（专业）
}
students-|>users
users <|-- teachers
class grades {
    <b>student_id</b> （学号）
    <b>test_id</b> （实验编号）
    result （分数）
    update_date （评改日期）
}

class tests {
    <b>test_id</b> （实验编号）
    <b>course_id</b>（课程编号）
    title (实验名称)
}
class course{
    <b>course_id</b>（课程编号）
    course_name（课程名称）
    term（学期）
    result_sum（成绩汇总）
    <b>student_id</b>（学号）
   <b>teacher_id</b> （老师工号）
}
class memo{
    <b>memo_id</b>（评分编号）
    <b>student_id</b> （学号）
    <b>test_id</b> （实验编号）
    result （分数）
    memo （评价）
}
grades"1"--"n"memo
course "1" -- "n"  tests
tests "1" -- "n"  grades
course "n"--"n" students:上课
course "n"--"1"teachers:教授

@enduml